<svg xmlns="http://www.w3.org/2000/svg" viewBox="0 0 100 13">  <g fill="#000">    <path d="M0 0c.3 1.1 1.3 2.3 2.6 2.6h4.1l.2.1V13h2.5V2.7l.2-.1h4.1c1.4-.4 2.3-1.5 2.6-2.6H0zM77.8 13c1.3-.5 2-1.5 2.2-2.6H68.7V-.1h-2.5v13h11.6zM47.3 2.6h9c1.3-.4 2.5-1.4 2.7-2.6H44.8v7.7h11.6v2.7h-9.1c-1.4.4-2.6 1.4-3.2 2.6H59V5.2H47.3V2.6zM85.4 5.2V13H88V7.8h9.1V13h2.6V5.2M25.2 2.6h9.7c1.3-.3 2.4-1.5 2.6-2.6h-15c.4 1.2 1.4 2.3 2.7 2.6M25.2 7.8h9.7c1.3-.3 2.4-1.5 2.6-2.6h-15c.4 1.1 1.4 2.3 2.7 2.6M25.2 13h9.7c1.3-.3 2.4-1.5 2.6-2.6h-15c.4 1.2 1.4 2.4 2.7 2.6M87.7 2.6h9.7c1.3-.3 2.4-1.5 2.6-2.6H85c.3 1.2 1.3 2.4 2.7 2.6"/>  </g></svg>